PathFileType	4	(X/Y/Z)	c:/Users/goper/Files/vsCode/490R/osim_files/C04/C04_SSWS_03.trc
DataRate	CameraRate	NumFrames	NumMarkers	Units                	OrigDataRate	OrigDataStartFrame	OrigNumFrames
250.00	250.00	7	36	mm	250.0	2520	2879
                Frame#	Time	LPSIS			LASIS			LTH1			LTH2			LTH3			LTH4			LLFE			LMFE			LSH1			LSH2			LSH3			LSH4			LLMAL			LMMAL			LCAL			LMTP5			LTOE			LMTP1			RPSIS			RASIS			RTH1			RTH2			RTH3			RTH4			RLFE			RMFE			RSH1			RSH2			RSH3			RSH4			RLMAL			RMMAL			RCAL			RMTP1			RTOE			RMTP5		
		X1	Y1	Z1	X2	Y2	Z2	X3	Y3	Z3	X4	Y4	Z4	X5	Y5	Z5	X6	Y6	Z6	X7	Y7	Z7	X8	Y8	Z8	X9	Y9	Z9	X10	Y10	Z10	X11	Y11	Z11	X12	Y12	Z12	X13	Y13	Z13	X14	Y14	Z14	X15	Y15	Z15	X16	Y16	Z16	X17	Y17	Z17	X18	Y18	Z18	X19	Y19	Z19	X20	Y20	Z20	X21	Y21	Z21	X22	Y22	Z22	X23	Y23	Z23	X24	Y24	Z24	X25	Y25	Z25	X26	Y26	Z26	X27	Y27	Z27	X28	Y28	Z28	X29	Y29	Z29	X30	Y30	Z30	X31	Y31	Z31	X32	Y32	Z32	X33	Y33	Z33	X34	Y34	Z34	X35	Y35	Z35	X36	Y36	Z36

2520	10.07600	-2920.40088	972.13538	247.34465	0.00000	0.00000	0.00000	0.00000	0.00000	0.00000	0.00000	0.00000	0.00000	-4882.62109	1333.13025	362.58081	-4860.15625	1390.32507	359.91806	-4943.40723	1223.33618	344.64224	0.00000	0.00000	0.00000	0.00000	0.00000	0.00000	0.00000	0.00000	0.00000	0.00000	0.00000	0.00000	-3248.34644	-37.08606	242.12677	-2979.83862	70.77647	284.32840	-2989.17017	88.37184	193.34062	-2914.47144	45.41777	238.66003	0.00000	0.00000	0.00000	-5039.45557	1621.41882	214.67200	0.00000	0.00000	0.00000	-2914.81396	970.88489	172.32452	0.00000	0.00000	0.00000	0.00000	0.00000	0.00000	-3108.68115	705.50317	372.42169	0.00000	0.00000	0.00000	-3121.30078	636.86816	352.29654	0.00000	0.00000	0.00000	-3040.15649	445.68039	202.07901	0.00000	0.00000	0.00000	0.00000	0.00000	0.00000	-3033.99878	406.07291	59.94556	0.00000	0.00000	0.00000	-2891.69141	191.21687	96.97662	-2923.07007	190.68054	182.73354	-2836.00610	204.25882	157.88364	-2958.21216	77.36175	174.02701	0.00000	0.00000	0.00000	-2950.20679	63.70192	64.41400
2521	10.08000	-2923.91235	972.45111	247.42116	0.00000	0.00000	0.00000	0.00000	0.00000	0.00000	0.00000	0.00000	0.00000	-4881.58838	1336.52136	362.17068	-4860.50928	1389.95215	359.87860	-4943.36279	1223.28308	344.60745	0.00000	0.00000	0.00000	0.00000	0.00000	0.00000	0.00000	0.00000	0.00000	0.00000	0.00000	0.00000	-3248.37329	-37.08906	242.16684	-2980.01074	70.82618	284.37466	-2989.23193	88.47622	193.31776	-2912.70093	46.37075	238.38757	0.00000	0.00000	0.00000	-5044.18457	1622.90332	214.71103	0.00000	0.00000	0.00000	-2918.04614	971.32471	172.32176	0.00000	0.00000	0.00000	0.00000	0.00000	0.00000	-3111.49512	705.45569	372.19525	0.00000	0.00000	0.00000	-3123.77612	636.69867	351.97986	0.00000	0.00000	0.00000	0.00000	0.00000	0.00000	0.00000	0.00000	0.00000	0.00000	0.00000	0.00000	-3040.92139	405.64822	60.00418	0.00000	0.00000	0.00000	-2902.55420	187.70079	96.38200	-2933.88745	187.73796	182.20618	-2846.52563	198.76204	157.48811	-2973.05737	75.64375	173.23599	0.00000	0.00000	0.00000	-2969.97681	59.92710	64.63055
2522	10.08400	-2927.24731	972.70966	247.42508	0.00000	0.00000	0.00000	0.00000	0.00000	0.00000	0.00000	0.00000	0.00000	-4881.58496	1336.18506	362.11856	-4861.01025	1389.64258	359.85117	-4943.31934	1223.23169	344.58273	0.00000	0.00000	0.00000	0.00000	0.00000	0.00000	0.00000	0.00000	0.00000	0.00000	0.00000	0.00000	-3248.38940	-37.11891	242.15654	-2980.06519	70.85706	284.42950	-2989.03516	88.63414	193.29605	-2912.76611	46.52555	238.39973	0.00000	0.00000	0.00000	-5048.85205	1624.37012	214.69832	0.00000	0.00000	0.00000	-2921.56812	971.57483	172.44734	-2922.50854	886.34082	304.59799	0.00000	0.00000	0.00000	-3114.11670	705.34082	371.95837	0.00000	0.00000	0.00000	-3126.29907	636.53741	351.68634	0.00000	0.00000	0.00000	-3174.96631	411.12830	279.42554	0.00000	0.00000	0.00000	0.00000	0.00000	0.00000	-3047.86572	405.21182	59.98233	0.00000	0.00000	0.00000	-2913.50439	183.90915	95.83902	-2944.44214	184.79483	181.61540	-2857.57153	193.54352	156.84792	-2988.06250	73.87811	172.33583	0.00000	0.00000	0.00000	-2985.15771	57.05929	66.37833
2523	10.08800	-2930.63062	972.78516	247.43665	0.00000	0.00000	0.00000	0.00000	0.00000	0.00000	0.00000	0.00000	0.00000	-4883.24023	1332.18066	362.42328	-4861.36182	1389.31909	359.81546	0.00000	0.00000	0.00000	-3048.91626	443.65076	202.72754	-3276.37988	-47.93224	173.72041	0.00000	0.00000	0.00000	0.00000	0.00000	0.00000	-3248.40112	-37.18083	242.18286	-2980.29395	70.83327	284.40274	-2989.38403	88.62255	193.17641	-2912.92773	46.58337	238.40413	0.00000	0.00000	0.00000	-5053.56152	1625.80286	214.70105	0.00000	0.00000	0.00000	-2925.17554	971.78918	172.46974	0.00000	0.00000	0.00000	0.00000	0.00000	0.00000	-3116.92896	705.28668	371.73758	0.00000	0.00000	0.00000	-3128.76147	636.42633	351.46722	0.00000	0.00000	0.00000	0.00000	0.00000	0.00000	0.00000	0.00000	0.00000	0.00000	0.00000	0.00000	-3054.60132	404.64798	59.93862	0.00000	0.00000	0.00000	-2924.57422	180.37189	95.12886	-2963.58130	178.86115	179.86864	-2866.08105	189.06628	155.52187	-3003.17651	72.01363	171.33624	0.00000	0.00000	0.00000	0.00000	0.00000	0.00000
2524	10.09200	-2934.14697	972.98553	247.45952	0.00000	0.00000	0.00000	0.00000	0.00000	0.00000	0.00000	0.00000	0.00000	-4883.44434	1331.88013	362.37244	-4861.84961	1389.00488	359.79553	0.00000	0.00000	0.00000	0.00000	0.00000	0.00000	-3276.38672	-47.94284	173.72000	0.00000	0.00000	0.00000	0.00000	0.00000	0.00000	-3248.45312	-37.23408	242.20445	-2980.34229	70.85165	284.40463	0.00000	0.00000	0.00000	-2912.94482	46.71751	238.40710	0.00000	0.00000	0.00000	-5058.26953	1627.27759	214.75046	0.00000	0.00000	0.00000	-2928.38721	972.08936	172.42807	0.00000	0.00000	0.00000	0.00000	0.00000	0.00000	-3119.60767	705.17798	371.56287	0.00000	0.00000	0.00000	-3131.17456	636.24554	351.19955	0.00000	0.00000	0.00000	-3178.45190	400.05170	256.78784	0.00000	0.00000	0.00000	0.00000	0.00000	0.00000	-3061.40942	403.98761	59.77099	0.00000	0.00000	0.00000	-2935.70215	176.71062	94.43221	0.00000	0.00000	0.00000	-2877.04956	183.80365	154.82729	0.00000	0.00000	0.00000	-4968.65234	1367.92993	218.21931	0.00000	0.00000	0.00000
2525	10.09600	-2937.40845	973.19257	247.33612	0.00000	0.00000	0.00000	0.00000	0.00000	0.00000	0.00000	0.00000	0.00000	-4881.53076	1335.38452	361.93555	-4862.20068	1388.71057	359.74612	0.00000	0.00000	0.00000	-3179.62769	399.94211	256.58115	-3276.35156	-47.98866	173.70273	0.00000	0.00000	0.00000	0.00000	0.00000	0.00000	-3248.51831	-37.27370	242.17496	-2978.06079	71.62042	283.24234	-2975.61987	93.64225	193.58368	-2913.02979	46.84142	238.37122	0.00000	0.00000	0.00000	-5062.82910	1628.62024	214.78456	0.00000	0.00000	0.00000	-2931.80298	972.31824	172.38551	-2933.15698	886.22650	304.90225	0.00000	0.00000	0.00000	-3122.21851	705.03455	371.35895	0.00000	0.00000	0.00000	-3133.58105	636.07385	350.90219	0.00000	0.00000	0.00000	0.00000	0.00000	0.00000	0.00000	0.00000	0.00000	0.00000	0.00000	0.00000	-3068.10913	403.25873	59.61796	0.00000	0.00000	0.00000	-2946.95996	173.03110	93.63973	0.00000	0.00000	0.00000	-2889.78174	177.99170	154.41504	0.00000	0.00000	0.00000	-4973.68018	1368.56812	217.94498	0.00000	0.00000	0.00000
2526	10.10000	-2940.80151	973.26788	247.24786	0.00000	0.00000	0.00000	0.00000	0.00000	0.00000	0.00000	0.00000	0.00000	-4881.54590	1335.13245	361.89777	-4862.67236	1388.40381	359.73447	0.00000	0.00000	0.00000	0.00000	0.00000	0.00000	-3276.33984	-48.01039	173.71785	0.00000	0.00000	0.00000	0.00000	0.00000	0.00000	-3248.51172	-37.32744	242.22186	-2978.33984	71.60307	283.25980	-2983.96338	91.38051	193.18118	-2913.16162	46.94477	238.36769	0.00000	0.00000	0.00000	-5067.42676	1629.96387	214.79871	0.00000	0.00000	0.00000	-2935.48218	972.39606	172.35992	-2936.61304	886.08563	304.97168	0.00000	0.00000	0.00000	-3125.00903	704.95111	371.14536	0.00000	0.00000	0.00000	-3136.04443	635.98914	350.66165	0.00000	0.00000	0.00000	-3068.19458	448.42920	318.07605	0.00000	0.00000	0.00000	0.00000	0.00000	0.00000	-3074.94458	402.44519	59.40213	0.00000	0.00000	0.00000	-2958.36768	169.39827	92.87910	0.00000	0.00000	0.00000	-2901.09180	172.74077	153.66063	0.00000	0.00000	0.00000	-4978.54102	1369.11646	217.64386	0.00000	0.00000	0.00000
